<?xml version="1.0" encoding="UTF-8" standalone="no"?>
<svg
   xmlns="http://www.w3.org/2000/svg"
   height="168px"
   width="168px"
   version="1.1"
   viewBox="0 0 168 168">
  <path
     style="fill:#ffffff"
     d="M 71.251953 44.568359 C 56.636088 44.606018 42.786234 46.466484 31.693359 49.833984 C 27.552359 51.091984 25.218656 55.465469 26.472656 59.605469 C 27.726656 63.743469 32.102234 66.079219 36.240234 64.824219 C 62.009234 57.003219 106.5393 58.476812 133.5293 74.507812 L 133.5332 74.507812 C 137.2432 76.717812 142.06367 75.491531 144.26367 71.769531 C 146.47367 68.052531 145.25344 63.244156 141.52344 61.035156 C 122.10219 49.505781 95.611729 44.505596 71.251953 44.568359 z M 69.626953 73.396484 C 58.21078 73.42412 46.882203 74.978266 36.427734 78.150391 C 32.980734 79.200391 31.034219 82.839969 32.074219 86.292969 C 33.122219 89.739969 36.769656 91.685578 40.222656 90.642578 C 66.847656 82.560578 101.15992 86.56725 123.66992 100.40625 C 126.73946 102.29597 130.76003 101.32781 132.65039 98.253906 C 134.53917 95.188092 133.56951 91.167041 130.5 89.277344 C 113.53594 78.852813 91.421465 73.343726 69.626953 73.396484 z M 70.591797 100.71289 C 60.728938 100.75717 50.297656 102.03083 39.332031 104.53711 C 36.516031 105.17711 34.76325 107.97711 35.40625 110.78711 C 36.04625 113.59711 38.84725 115.3568 41.65625 114.7168 C 70.80625 108.0568 95.558703 110.77711 115.2207 122.78711 C 117.6807 124.29711 120.90039 123.51664 122.40039 121.05664 C 123.91039 118.59664 123.12992 115.38695 120.66992 113.87695 C 106.18386 105.02414 89.420891 100.62836 70.591797 100.71289 z " />
</svg>
