<?xml version="1.0" encoding="UTF-8" standalone="no"?>
<svg
   xmlns="http://www.w3.org/2000/svg"
   enable-background="new 0 0 24 24"
   height="512"
   viewBox="0 0 24 24"
   width="512"
   version="1.1">
  <path
     style="fill:#ffffff;stroke-width:17.6785"
     d="M -1 -1 L -1 513 L 513 513 L 513 -1 L -1 -1 z M 256 0 A 256 256 0 0 1 512 256 A 256 256 0 0 1 256 512 A 256 256 0 0 1 0 256 A 256 256 0 0 1 256 0 z M 370.17773 154.12109 C 368.21259 154.12309 366.11675 154.50916 363.96875 155.28516 L 117.14062 250.45312 C 100.22329 257.06646 100.5229 266.4312 114.24023 270.7832 L 177.42969 290.49609 L 324.00977 198.20703 C 330.8151 193.68436 337.13142 196.24506 331.96875 200.78906 L 213.35547 307.94727 L 208.81055 373.07812 C 215.42388 373.07812 218.30346 370.19654 221.7168 366.7832 L 252.58594 337.04492 L 316.58594 384.21289 C 328.25527 390.82622 336.59822 387.41429 339.71289 373.37695 L 381.73828 175.38086 L 381.7168 175.40234 C 384.7328 161.32768 378.69334 154.11243 370.17773 154.12109 z "
     transform="scale(0.046875)" />
</svg>
