<?xml version="1.0" encoding="UTF-8" standalone="no"?>
<svg
   xmlns:dc="http://purl.org/dc/elements/1.1/"
   xmlns:cc="http://creativecommons.org/ns#"
   xmlns:rdf="http://www.w3.org/1999/02/22-rdf-syntax-ns#"
   xmlns:svg="http://www.w3.org/2000/svg"
   xmlns="http://www.w3.org/2000/svg"
   xmlns:sodipodi="http://sodipodi.sourceforge.net/DTD/sodipodi-0.dtd"
   xmlns:inkscape="http://www.inkscape.org/namespaces/inkscape"
   viewBox="0 0 1220.78 1220.78"
   version="1.1"
   id="svg26"
   sodipodi:docname="github-outer.svg"
   width="1220.78"
   height="1220.78"
   inkscape:version="1.0.1 (3bc2e813f5, 2020-09-07)">
  <metadata
     id="metadata30">
    <rdf:RDF>
      <cc:Work
         rdf:about="">
        <dc:format>image/svg+xml</dc:format>
        <dc:type
           rdf:resource="http://purl.org/dc/dcmitype/StillImage" />
        <dc:title>Ресурс 1</dc:title>
      </cc:Work>
    </rdf:RDF>
  </metadata>
  <sodipodi:namedview
     pagecolor="#ffffff"
     bordercolor="#666666"
     borderopacity="1"
     objecttolerance="10"
     gridtolerance="10"
     guidetolerance="10"
     inkscape:pageopacity="0"
     inkscape:pageshadow="2"
     inkscape:window-width="1920"
     inkscape:window-height="1027"
     id="namedview28"
     showgrid="false"
     inkscape:zoom="0.64533474"
     inkscape:cx="635.57929"
     inkscape:cy="738.0128"
     inkscape:window-x="-8"
     inkscape:window-y="-8"
     inkscape:window-maximized="1"
     inkscape:current-layer="svg26" />
  <defs
     id="defs4">
    <style
       id="style2">.cls-1,.cls-2{fill:#231e1b;}.cls-1{fill-rule:evenodd;}</style>
  </defs>
  <title
     id="title6">Ресурс 1</title>
  <path
     id="rect32"
     style="fill:#ffffff;stroke-width:126.685"
     d="M 0,0 V 1220.78 H 1220.78 V 0 Z M 610.69103,10.190914 A 600.54613,615.4293 0 0 1 800.82062,1209.2555 c -30.43006,6.0126 -41.15687,-13.1502 -41.15687,-29.5577 0,-20.1779 0.58265,-86.524 0.58265,-168.8666 0,-57.37485 -19.19126,-94.87422 -40.6713,-113.93123 133.75303,-15.28637 274.17197,-67.24809 274.17197,-303.6773 a 232.10377,237.85594 0 0 0 -61.745,-165.20428 c 6.26501,-15.694 26.75216,-78.26621 -5.86568,-163.05462 0,0 -50.81465,-16.10722 -164.97709,63.07618 a 570.41441,584.55084 0 0 0 -300.82001,0 C 345.5802,248.44891 295.14856,264.96377 295.14856,264.96377 262.53071,349.956 283.11498,412.52821 289.37998,428.01839 a 232.20321,237.95784 0 0 0 -61.95865,165.40332 c 0,235.81775 140.72891,288.60748 273.68638,303.99576 -17.20392,15.38828 -32.71573,42.49929 -38.18519,82.24386 -34.20895,15.9997 -121.12666,43.10757 -174.72731,-50.95457 0,0 -31.72052,-59.01256 -92.08341,-63.39465 0,0 -58.57444,-0.81611 -4.07878,37.39986 0,0 39.36998,18.7497 66.71725,90.08609 0,0 35.20184,109.74734 202.26883,72.55054 0.29828,51.4641 0.79632,99.8734 0.79632,114.5483 0,16.3054 -11.12927,35.364 -40.96265,29.6571 A 600.54613,615.4293 0 0 1 610.69103,10.190914 Z M 229.1111,883.48458 c 1.00532,0.15282 2.02153,0.46572 2.99111,0.97529 3.87835,2.03819 6.87178,6.21806 5.38011,9.27534 h 0.0974 c -1.29278,3.05726 -5.96668,3.98878 -9.94447,1.95059 -3.97779,-2.03818 -6.86945,-6.21804 -5.47722,-9.27531 1.04417,-2.29297 3.93739,-3.38451 6.95335,-2.92592 z m 21.42333,21.17799 c 2.95538,-0.58762 6.72805,0.94984 9.7114,4.15998 3.97778,4.28017 4.67311,10.1909 1.68978,12.73863 -2.8839,2.75154 -8.45513,1.4339 -12.33348,-2.84629 a 9.148906,9.375641 0 0 1 -1.68977,-12.73864 c 0.74581,-0.68784 1.63695,-1.11782 2.62207,-1.31368 z m 24.80289,31.34901 c 3.47746,-0.12906 7.66423,2.35187 10.27465,6.2499 3.48057,5.19737 3.67945,12.11922 0,14.76886 -3.67945,2.64964 -9.96,0.005 -13.44056,-5.2945 -3.48056,-5.29927 -3.67945,-12.03961 0,-14.68924 0.91991,-0.66239 2.00676,-0.992 3.16591,-1.03502 z m 30.82395,34.6929 c 2.75958,0.40766 5.80043,1.91079 8.58488,4.45852 5.56889,5.09546 6.76301,12.03563 3.28244,15.70436 l 0.38847,0.39802 a 11.237243,11.515733 0 0 1 -15.81015,-2.74675 c -5.27058,-4.99354 -6.76068,-12.01572 -3.37956,-15.68445 1.69056,-1.83437 4.17433,-2.53739 6.93392,-2.12974 z m 41.6036,26.98996 c 1.6284,0.01 3.35393,0.28138 5.06934,0.8163 6.86169,2.14006 11.23725,7.74756 9.94447,12.63916 -1.49167,4.7897 -8.15213,7.0341 -15.01381,4.9959 -6.86169,-2.0381 -11.23725,-7.7474 -9.94447,-12.6391 0.96962,-3.66869 5.05925,-5.85502 9.94447,-5.81197 z m 100.61,2.26915 c 4.79664,0.54981 8.59341,3.16151 9.26466,6.90671 0.89505,4.9936 -4.06868,10.1821 -11.12925,11.4051 -7.06057,1.2229 -13.41959,-1.7341 -14.31459,-6.7276 -0.89505,-4.9936 4.16812,-10.1822 11.12925,-11.4051 1.74028,-0.30529 3.45104,-0.36196 5.04993,-0.17901 z m -49.41156,5.87161 c 7.25947,-0.1014 12.93558,3.9833 12.93558,8.9768 0,5.0955 -5.56191,9.273 -12.72193,9.3749 -7.16001,0.1014 -12.93323,-3.8638 -13.03268,-8.8574 -0.0994,-4.9936 5.55958,-9.3924 12.81903,-9.4943 z" />
  <g
     id="Слой_2"
     data-name="Слой 2"
     transform="translate(1.0200834,1.0000033)">
    <g
       id="Layer_1"
       data-name="Layer 1" />
  </g>
</svg>
