<?xml version="1.0" encoding="UTF-8" standalone="no"?>
<svg
   xmlns:dc="http://purl.org/dc/elements/1.1/"
   xmlns:cc="http://creativecommons.org/ns#"
   xmlns:rdf="http://www.w3.org/1999/02/22-rdf-syntax-ns#"
   xmlns:svg="http://www.w3.org/2000/svg"
   xmlns="http://www.w3.org/2000/svg"
   xmlns:sodipodi="http://sodipodi.sourceforge.net/DTD/sodipodi-0.dtd"
   xmlns:inkscape="http://www.inkscape.org/namespaces/inkscape"
   viewBox="0 0 2772.04 2772.06"
   version="1.1"
   id="svg11"
   sodipodi:docname="Ресурс 2.svg"
   inkscape:version="1.0.1 (3bc2e813f5, 2020-09-07)">
  <metadata
     id="metadata15">
    <rdf:RDF>
      <cc:Work
         rdf:about="">
        <dc:format>image/svg+xml</dc:format>
        <dc:type
           rdf:resource="http://purl.org/dc/dcmitype/StillImage" />
        <dc:title>Ресурс 1</dc:title>
      </cc:Work>
    </rdf:RDF>
  </metadata>
  <sodipodi:namedview
     pagecolor="#ffffff"
     bordercolor="#666666"
     borderopacity="1"
     objecttolerance="10"
     gridtolerance="10"
     guidetolerance="10"
     inkscape:pageopacity="0"
     inkscape:pageshadow="2"
     inkscape:window-width="1920"
     inkscape:window-height="1027"
     id="namedview13"
     showgrid="false"
     inkscape:zoom="0.31023859"
     inkscape:cx="1386.02"
     inkscape:cy="1128.164"
     inkscape:window-x="-8"
     inkscape:window-y="-8"
     inkscape:window-maximized="1"
     inkscape:current-layer="svg11" />
  <defs
     id="defs4">
    <style
       id="style2">.cls-1{fill:#2ebd59;}</style>
  </defs>
  <title
     id="title6">Ресурс 1</title>
  <path
     id="rect17"
     style="fill:#ffffff;stroke-width:20.2365"
     d="M 0 0 L 0 1386 C 0 620.54 620.56 0 1386 0 L 0 0 z M 1386 0 L 1386 0.0703125 C 2151.55 0.0703125 2772 620.45 2772 1386 L 2772 0 L 1386 0 z M 2772 1386 C 2772 2151.55 2151.44 2772.0605 1386 2772.0605 L 2772 2772.0605 L 2772 1386 z M 1386 2772.0605 C 620.56 2772.0605 0 2151.46 0 1386 L 0 2772.0605 L 1386 2772.0605 z M 1175.0938 733.1543 C 933.18799 733.7775 703.98039 764.5743 520.36914 820.31055 A 129.63186 129.63186 0 0 0 595.63086 1068.4102 C 1022.1309 939.00016 1759.0701 963.36016 2205.8301 1228.6602 L 2205.8691 1228.6895 C 2267.2691 1265.2595 2347.0409 1244.9596 2383.4609 1183.3496 A 129.64 129.64 0 0 0 2338.1602 1005.7109 C 2016.7227 814.89219 1578.27 732.11562 1175.0938 733.1543 z M 1148.1953 1210.3242 C 959.25135 1210.7817 771.76047 1236.4956 598.73047 1289 A 108.02473 108.02473 0 0 0 661.5 1495.7305 C 1102.17 1361.9605 1670.1391 1428.2402 2042.6191 1657.2402 C 2093.4191 1688.4802 2159.9195 1672.5202 2191.2695 1621.6602 L 2191.2695 1621.7207 C 2222.5495 1570.9707 2206.4997 1504.4402 2155.6797 1473.1602 C 1874.9097 1300.6255 1508.9065 1209.4508 1148.1953 1210.3242 z M 1175.2637 1662.375 C 1008.7489 1662.1862 832.41055 1683.2801 646.78906 1725.7207 A 86.36 86.36 0 1 0 685.23047 1894.0996 C 1167.6905 1783.8896 1577.3601 1828.83 1902.8301 2027.75 A 86.34 86.34 0 0 0 2021.6191 1999 L 2021.6309 1999.0508 A 86.4 86.4 0 0 0 1993 1880.2109 C 1756.0998 1735.4732 1482.3909 1662.7233 1175.2637 1662.375 z " />
  <g
     id="Слой_2"
     data-name="Слой 2">
    <g
       id="Слой_1-2"
       data-name="Слой 1" />
  </g>
</svg>
