<svg width="2931" height="2931.018" xmlns="http://www.w3.org/2000/svg">

 <g>
  <title>background</title>
  <rect fill="none" id="canvas_background" height="2933.018" width="2933" y="-1" x="-1"/>
 </g>
 <g>
  <title>Layer 1</title>
  <path stroke="null" id="svg_1" d="m1468.32177,8.10536c-806.88177,0 -1461.01992,654.1202 -1461.01992,1461.00197c0,806.96851 654.13814,1461.05482 1461.01992,1461.05482c806.91766,0 1461.01993,-654.08531 1461.01993,-1461.05482c0,-806.82993 -654.06836,-1460.93219 -1461.03787,-1460.93219l0.01794,-0.06978zm670.01446,2107.18451c-26.23954,43.04103 -82.31259,56.52667 -125.21404,30.30408c-343.08497,-209.689 -774.92079,-257.05676 -1283.48531,-140.88001c-49.00673,11.23655 -97.85694,-19.48724 -109.0217,-68.47802c-11.2186,-49.00672 19.36463,-97.85693 68.49398,-109.02169c556.54241,-127.23784 1033.93055,-72.47276 1419.02669,162.84465c42.91839,26.34521 56.52567,82.34849 30.18245,125.26589l0.01794,-0.0349zm178.82565,-397.7613c-33.04367,53.6126 -103.14371,70.43103 -156.68653,37.50898c-392.63303,-241.35392 -991.34413,-311.26254 -1455.85576,-170.25892c-60.24327,18.19621 -123.87016,-15.75468 -142.1541,-75.89228c-18.14436,-60.24327 15.82448,-123.74854 75.96207,-142.06737c530.59997,-160.99532 1190.21532,-83.01046 1641.2064,194.12773c53.56175,32.97389 70.48386,103.10883 37.50998,156.59881l0.01794,-0.01695zm15.35293,-414.24974c-470.95088,-279.68438 -1247.77283,-305.40052 -1697.35124,-168.95193c-72.19262,21.89486 -148.53852,-18.86017 -170.41644,-91.0538c-21.87791,-72.22752 18.84223,-148.52157 91.0877,-170.46927c516.08448,-156.66859 1374.01571,-126.39941 1916.14632,195.43571c64.93588,38.53883 86.23856,122.40367 47.75058,187.25281c-38.38231,64.93588 -122.47445,86.34224 -187.19998,47.78647l-0.01694,0z" fill="#2EBD59"/>
 </g>
</svg>