<?xml version="1.0" encoding="UTF-8" standalone="no"?>
<svg
   xmlns="http://www.w3.org/2000/svg"
   height="170"
   width="170"
   version="1.1"
   viewBox="0 0 170 170">
  <path
     style="fill:#ffffff;stroke-width:41.487"
     d="M 0 0 L 0 170 L 170 170 L 170 0 L 0 0 z M 84.996094 1.2773438 L 84.994141 1.28125 C 131.24914 1.28125 168.74023 38.773531 168.74023 85.019531 C 168.74023 131.27053 131.25009 168.75977 84.996094 168.75977 C 38.747094 168.75977 1.2539062 131.27053 1.2539062 85.019531 C 1.2539062 38.770531 38.747094 1.2773438 84.996094 1.2773438 z M 72.251953 45.568359 C 57.636088 45.606018 43.786234 47.466484 32.693359 50.833984 C 28.552359 52.091984 26.218656 56.465469 27.472656 60.605469 C 28.726656 64.743469 33.102234 67.079219 37.240234 65.824219 C 63.009234 58.003219 107.5393 59.476812 134.5293 75.507812 L 134.5332 75.507812 C 138.2432 77.717812 143.06367 76.491531 145.26367 72.769531 C 147.47367 69.052531 146.25344 64.244156 142.52344 62.035156 C 123.10219 50.505781 96.611729 45.505596 72.251953 45.568359 z M 70.626953 74.396484 C 59.21078 74.42412 47.882203 75.978266 37.427734 79.150391 C 33.980734 80.200391 32.034219 83.839969 33.074219 87.292969 C 34.122219 90.739969 37.769656 92.685578 41.222656 91.642578 C 67.847656 83.560578 102.15992 87.56725 124.66992 101.40625 C 127.73946 103.29597 131.76003 102.32781 133.65039 99.253906 C 135.53917 96.188092 134.56951 92.167041 131.5 90.277344 C 114.53594 79.852813 92.421465 74.343726 70.626953 74.396484 z M 71.591797 101.71289 C 61.728938 101.75717 51.297656 103.03083 40.332031 105.53711 C 37.516031 106.17711 35.76325 108.97711 36.40625 111.78711 C 37.04625 114.59711 39.84725 116.3568 42.65625 115.7168 C 71.80625 109.0568 96.558703 111.77711 116.2207 123.78711 C 118.6807 125.29711 121.90039 124.51664 123.40039 122.05664 C 124.91039 119.59664 124.12992 116.38695 121.66992 114.87695 C 107.18386 106.02414 90.420891 101.62836 71.591797 101.71289 z " />
</svg>
