<?xml version="1.0" encoding="UTF-8" standalone="no"?>
<svg
   xmlns:dc="http://purl.org/dc/elements/1.1/"
   xmlns:cc="http://creativecommons.org/ns#"
   xmlns:rdf="http://www.w3.org/1999/02/22-rdf-syntax-ns#"
   xmlns:svg="http://www.w3.org/2000/svg"
   xmlns="http://www.w3.org/2000/svg"
   xmlns:sodipodi="http://sodipodi.sourceforge.net/DTD/sodipodi-0.dtd"
   xmlns:inkscape="http://www.inkscape.org/namespaces/inkscape"
   width="2931"
   height="2931.018"
   version="1.1"
   id="svg20"
   sodipodi:docname="spotify.svg"
   inkscape:version="1.0.1 (3bc2e813f5, 2020-09-07)">
  <metadata
     id="metadata26">
    <rdf:RDF>
      <cc:Work
         rdf:about="">
        <dc:format>image/svg+xml</dc:format>
        <dc:type
           rdf:resource="http://purl.org/dc/dcmitype/StillImage" />
      </cc:Work>
    </rdf:RDF>
  </metadata>
  <defs
     id="defs24" />
  <sodipodi:namedview
     pagecolor="#ffffff"
     bordercolor="#666666"
     borderopacity="1"
     objecttolerance="10"
     gridtolerance="10"
     guidetolerance="10"
     inkscape:pageopacity="0"
     inkscape:pageshadow="2"
     inkscape:window-width="1920"
     inkscape:window-height="1027"
     id="namedview22"
     showgrid="false"
     inkscape:zoom="0.1451714"
     inkscape:cx="2314.7771"
     inkscape:cy="2168.8703"
     inkscape:window-x="-8"
     inkscape:window-y="-8"
     inkscape:window-maximized="1"
     inkscape:current-layer="layer1" />
  <g
     inkscape:groupmode="layer"
     id="layer1"
     inkscape:label="Layer 1">
    <path
       id="rect28"
       style="fill:#ffffff"
       d="M 0 -3.4433594 L 0 2941.4082 L 2930.9121 2941.4082 L 2930.9121 -3.4433594 L 0 -3.4433594 z M 1468.3223 8.1054688 L 1468.3047 8.1757812 C 2275.2742 8.1757812 2929.3418 662.27752 2929.3418 1469.1074 C 2929.3418 2276.0769 2275.2399 2930.1621 1468.3223 2930.1621 C 661.44046 2930.1621 7.3027344 2276.0759 7.3027344 1469.1074 C 7.3027344 662.22568 661.44047 8.1054688 1468.3223 8.1054688 z M 1245.9668 780.93359 C 990.97134 781.59057 749.36566 814.05397 555.83398 872.80469 C 483.58851 894.75239 442.87014 971.04592 464.74805 1043.2734 C 486.62597 1115.467 562.97144 1156.2211 635.16406 1134.3262 C 1084.7425 997.87758 1861.5647 1023.595 2332.5156 1303.2793 L 2332.5312 1303.2793 C 2397.2569 1341.8351 2481.3501 1320.428 2519.7324 1255.4922 C 2558.2204 1190.643 2536.9164 1106.7791 2471.9805 1068.2402 C 2133.1488 867.09331 1670.9592 779.83864 1245.9668 780.93359 z M 1217.6289 1283.8906 C 1018.4597 1284.3728 820.82146 1311.4762 638.42773 1366.8184 C 578.29014 1385.1372 544.32048 1448.6434 562.46484 1508.8867 C 580.74878 1569.0243 644.37587 1602.9755 704.61914 1584.7793 C 1169.1308 1443.7757 1767.8416 1513.6831 2160.4746 1755.0371 C 2214.0175 1787.9591 2284.1184 1771.1419 2317.1621 1717.5293 L 2317.1445 1717.5449 C 2350.1184 1664.0549 2333.1965 1593.9212 2279.6348 1560.9473 C 1983.6719 1379.0753 1597.8609 1282.9702 1217.6289 1283.8906 z M 1246.168 1760.4395 C 1070.6457 1760.2448 884.76883 1782.4828 689.10938 1827.2148 C 639.98002 1838.3796 609.39663 1887.2296 620.61523 1936.2363 C 631.77999 1985.2271 680.62999 2015.9514 729.63672 2004.7148 C 1238.2012 1888.5381 1670.038 1935.9047 2013.123 2145.5938 C 2056.0244 2171.8162 2112.0964 2158.3301 2138.3359 2115.2891 L 2138.3184 2115.3242 C 2164.6616 2072.4068 2151.0532 2016.4038 2108.1348 1990.0586 C 1858.424 1837.47 1569.909 1760.7985 1246.168 1760.4395 z " />
  </g>
  <g
     inkscape:groupmode="layer"
     id="layer2"
     inkscape:label="Layer 2" />
</svg>
