<?xml version="1.0" encoding="UTF-8" standalone="no"?>
<svg
   xmlns="http://www.w3.org/2000/svg"
   viewBox="0 0 31.999998 32"
   version="1.1"
   width="32"
   height="32">
  <path
     style="fill:#ffffff;stroke-width:1.00032"
     d="M 7.8574219 6.8007812 C 7.6828861 6.8091207 7.5976562 6.8378906 7.5976562 6.8378906 A 5.8562692 5.9817261 0 0 0 7.4394531 11.177734 A 6.2111946 6.344255 0 0 0 5.7929688 15.578125 C 5.7929688 21.811607 9.5404028 23.221886 13.109375 23.634766 A 3.4112275 3.4843051 0 0 0 12.123047 25.830078 A 3.4309456 3.5044456 0 0 1 7.4492188 24.460938 A 3.3816504 3.4540944 0 0 0 4.9960938 22.769531 C 4.9960937 22.769531 3.4276744 22.768366 4.8769531 23.775391 A 4.298541 4.3906273 0 0 1 6.6621094 26.183594 C 6.6621094 26.183594 7.6078872 29.385626 12.09375 28.388672 L 12.09375 31.177734 C 12.09375 31.591076 11.828393 32.070414 11.101562 31.982422 A 16 16.350948 0 0 0 16 32.769531 A 16 16.350948 0 0 0 21.099609 31.916016 C 20.347171 32.032226 20.070312 31.641534 20.070312 31.126953 L 20.070312 26.625 A 3.7957301 3.8770447 0 0 0 18.974609 23.605469 C 22.553441 23.23287 26.310547 21.852802 26.310547 15.548828 A 6.2111946 6.344255 0 0 0 24.664062 11.148438 A 5.8266921 5.9515154 0 0 0 24.466797 6.8378906 C 24.466797 6.8378906 23.126708 6.3947093 20.060547 8.5195312 A 15.192779 15.518249 0 0 0 12.015625 8.5195312 C 9.7160041 6.9259148 8.3810293 6.775763 7.8574219 6.8007812 z M 31.978516 15.59375 A 16.060375 16.404431 0 0 1 31.988281 15.785156 A 16 16.350948 0 0 0 31.978516 15.59375 z M 31.992188 15.898438 A 16.060375 16.404431 0 0 1 31.998047 16.164062 A 16 16.350948 0 0 0 31.992188 15.898438 z M 0.001953125 16.648438 A 16 16.350948 0 0 0 0.009765625 16.960938 A 16.060375 16.404431 0 0 1 0.001953125 16.648438 z M 31.990234 16.972656 A 16.060375 16.404431 0 0 1 31.980469 17.210938 A 16 16.350948 0 0 0 31.990234 16.972656 z M 31.980469 17.210938 A 16.060375 16.404431 0 0 1 31.962891 17.533203 A 16 16.350948 0 0 0 31.980469 17.210938 z M 0.009765625 17.003906 A 16 16.350948 0 0 0 0.0234375 17.289062 A 16.060375 16.404431 0 0 1 0.009765625 17.003906 z M 31.929688 17.933594 A 16.060375 16.404431 0 0 1 31.902344 18.210938 A 16 16.350948 0 0 0 31.929688 17.933594 z M 0.08203125 18.060547 A 16 16.350948 0 0 0 0.11328125 18.347656 A 16.060375 16.404431 0 0 1 0.08203125 18.060547 z M 0.11328125 18.347656 A 16 16.350948 0 0 0 0.15625 18.6875 A 16.060375 16.404431 0 0 1 0.11328125 18.347656 z M 0.15625 18.6875 A 16 16.350948 0 0 0 0.26367188 19.363281 A 16.060375 16.404431 0 0 1 0.15625 18.6875 z M 0.26367188 19.363281 A 16 16.350948 0 0 0 0.47460938 20.367188 A 16.060375 16.404431 0 0 1 0.26367188 19.363281 z M 0.47460938 20.367188 A 16 16.350948 0 0 0 0.65039062 21.027344 A 16.060375 16.404431 0 0 1 0.47460938 20.367188 z M 0.65039062 21.027344 A 16 16.350948 0 0 0 0.734375 21.308594 A 16.060375 16.404431 0 0 1 0.65039062 21.027344 z M 31.896484 18.261719 A 16.060375 16.404431 0 0 1 31.859375 18.574219 A 16 16.350948 0 0 0 31.896484 18.261719 z M 31.859375 18.574219 A 16.060375 16.404431 0 0 1 31.695312 19.587891 A 16 16.350948 0 0 0 31.859375 18.574219 z M 31.695312 19.587891 A 16.060375 16.404431 0 0 1 31.626953 19.921875 A 16 16.350948 0 0 0 31.695312 19.587891 z M 31.626953 19.921875 A 16.060375 16.404431 0 0 1 31.550781 20.255859 A 16 16.350948 0 0 0 31.626953 19.921875 z M 31.550781 20.255859 A 16.060375 16.404431 0 0 1 31.380859 20.917969 A 16 16.350948 0 0 0 31.550781 20.255859 z M 31.380859 20.917969 A 16.060375 16.404431 0 0 1 31.285156 21.246094 A 16 16.350948 0 0 0 31.380859 20.917969 z M 31.285156 21.246094 A 16.060375 16.404431 0 0 1 30.707031 22.851562 A 16 16.350948 0 0 0 31.285156 21.246094 z M 30.707031 22.851562 A 16.060375 16.404431 0 0 1 30.572266 23.166016 A 16 16.350948 0 0 0 30.707031 22.851562 z M 30.572266 23.166016 A 16.060375 16.404431 0 0 1 30.431641 23.476562 A 16 16.350948 0 0 0 30.572266 23.166016 z M 30.431641 23.476562 A 16.060375 16.404431 0 0 1 30.283203 23.783203 A 16 16.350948 0 0 0 30.431641 23.476562 z M 30.283203 23.783203 A 16.060375 16.404431 0 0 1 30.128906 24.087891 A 16 16.350948 0 0 0 30.283203 23.783203 z M 30.128906 24.087891 A 16.060375 16.404431 0 0 1 29.96875 24.388672 A 16 16.350948 0 0 0 30.128906 24.087891 z M 29.96875 24.388672 A 16.060375 16.404431 0 0 1 29.810547 24.671875 A 16 16.350948 0 0 0 29.96875 24.388672 z M 0.76367188 21.402344 A 16 16.350948 0 0 0 1.0820312 22.324219 A 16.060375 16.404431 0 0 1 0.76367188 21.402344 z M 1.0820312 22.324219 A 16 16.350948 0 0 0 1.2070312 22.642578 A 16.060375 16.404431 0 0 1 1.0820312 22.324219 z M 1.2070312 22.642578 A 16 16.350948 0 0 0 1.3378906 22.957031 A 16.060375 16.404431 0 0 1 1.2070312 22.642578 z M 1.3378906 22.957031 A 16 16.350948 0 0 0 1.4746094 23.269531 A 16.060375 16.404431 0 0 1 1.3378906 22.957031 z M 1.4746094 23.269531 A 16 16.350948 0 0 0 1.6171875 23.578125 A 16.060375 16.404431 0 0 1 1.4746094 23.269531 z M 1.6171875 23.578125 A 16 16.350948 0 0 0 1.9238281 24.1875 A 16.060375 16.404431 0 0 1 1.6171875 23.578125 z M 1.9238281 24.1875 A 16 16.350948 0 0 0 2.0859375 24.488281 A 16.060375 16.404431 0 0 1 1.9238281 24.1875 z M 2.0859375 24.488281 A 16 16.350948 0 0 0 2.2539062 24.783203 A 16.060375 16.404431 0 0 1 2.0859375 24.488281 z M 2.2539062 24.783203 A 16 16.350948 0 0 0 2.4257812 25.072266 A 16.060375 16.404431 0 0 1 2.2539062 24.783203 z M 29.791016 24.707031 A 16.060375 16.404431 0 0 1 29.630859 24.976562 A 16 16.350948 0 0 0 29.791016 24.707031 z M 29.416016 25.326172 A 16.060375 16.404431 0 0 1 29.267578 25.554688 A 16 16.350948 0 0 0 29.416016 25.326172 z M 29.267578 25.554688 A 16.060375 16.404431 0 0 1 29.089844 25.820312 A 16 16.350948 0 0 0 29.267578 25.554688 z " />
  <g
     transform="matrix(0.98590391,0,0,1.0070246,0.01632334,5.9104103e-8)"
     style="fill:#008000">
    <g
       style="fill:#008000" />
  </g>
</svg>
