<?xml version="1.0" encoding="UTF-8" standalone="no"?>
<svg
   xmlns="http://www.w3.org/2000/svg"
   viewBox="0 0 999.99994 1000"
   version="1.1"
   width="1000"
   height="1000">
  <path
     style="fill:#ffffff"
     d="m 245.51507,189.12343 c -5.4549,0.26065 -8.11866,1.15979 -8.11866,1.15979 a 183.03052,186.95152 0 0 0 -4.94445,135.6365 194.12328,198.28192 0 0 0 -51.45884,137.52883 c 0,194.81985 117.12145,238.89639 228.66531,251.80046 a 106.61373,108.89769 0 0 0 -30.82648,68.61178 107.23,109.52715 0 0 1 -146.07477,-42.7908 105.68934,107.95349 0 0 0 -76.66941,-52.86285 c -1e-5,0 -49.01903,-0.0375 -3.7236,31.43692 a 134.34563,137.22368 0 0 1 55.79287,75.26544 c 0,0 29.55913,100.07558 169.75927,68.91701 v 87.16872 c 0,12.9185 -8.29341,27.89962 -31.00961,25.14954 a 500.0604,511.02885 0 0 0 153.09467,24.60013 500.0604,511.02885 0 0 0 159.38204,-26.67557 c -23.51653,3.632 -32.16942,-8.57861 -32.16942,-24.6612 V 808.7051 A 118.63089,121.17229 0 0 0 592.96913,714.33336 C 704.82114,702.68823 822.2449,659.5559 822.2449,462.53292 A 194.12328,198.28192 0 0 0 770.78602,325.00411 182.10612,186.00732 0 0 0 764.62075,190.28324 c 0,0 -41.88284,-13.8511 -137.71196,52.55761 a 474.83169,485.00386 0 0 0 -251.43418,0 C 303.60278,193.03433 261.87978,188.34151 245.51507,189.12343 Z M 999.39032,463.9369 a 501.94735,512.70039 0 0 1 0.30629,5.98215 500.0604,511.02885 0 0 0 -0.30629,-5.98215 z m 0.42723,9.52264 a 501.94735,512.70039 0 0 1 0.18435,8.30176 500.0604,511.02885 0 0 0 -0.18435,-8.30176 z M 0.00194895,496.89988 a 500.0604,511.02885 0 0 0 0.24417,9.7668 501.94735,512.70039 0 0 1 -0.24417,-9.7668 z M 999.75655,507.03292 a 501.94735,512.70039 0 0 1 -0.30629,7.44721 500.0604,511.02885 0 0 0 0.30629,-7.44721 z m -0.30629,7.44721 a 501.94735,512.70039 0 0 1 -0.54944,10.07199 500.0604,511.02885 0 0 0 0.54944,-10.07199 z M 0.24617895,508.0096 a 500.0604,511.02885 0 0 0 0.4273,8.9122 501.94735,512.70039 0 0 1 -0.4273,-8.9122 z M 997.86426,537.06586 a 501.94735,512.70039 0 0 1 -0.85448,8.66804 500.0604,511.02885 0 0 0 0.85448,-8.66804 z M 2.5047589,541.03362 a 500.0604,511.02885 0 0 0 0.97668,8.97324 501.94735,512.70039 0 0 1 -0.97668,-8.97324 z m 0.97668,8.97324 a 500.0604,511.02885 0 0 0 1.34294,10.6214 501.94735,512.70039 0 0 1 -1.34294,-10.6214 z m 1.34294,10.6214 a 500.0604,511.02885 0 0 0 3.35733,21.12071 501.94735,512.70039 0 0 1 -3.35733,-21.12071 z m 3.35733,21.12071 a 500.0604,511.02885 0 0 0 6.5925901,31.37589 501.94735,512.70039 0 0 1 -6.5925901,-31.37589 z m 6.5925901,31.37589 a 500.0604,511.02885 0 0 0 5.49384,20.63236 501.94735,512.70039 0 0 1 -5.49384,-20.63236 z m 5.49384,20.63236 a 500.0604,511.02885 0 0 0 2.62482,8.79013 501.94735,512.70039 0 0 1 -2.62482,-8.79013 z M 996.82651,547.321 a 501.94735,512.70039 0 0 1 -1.15983,9.76681 500.0604,511.02885 0 0 0 1.15983,-9.76681 z m -1.15983,9.76681 a 501.94735,512.70039 0 0 1 -5.12758,31.68107 500.0604,511.02885 0 0 0 5.12758,-31.68107 z m -5.12758,31.68107 a 501.94735,512.70039 0 0 1 -2.13651,10.43826 500.0604,511.02885 0 0 0 2.13651,-10.43826 z m -2.13651,10.43826 a 501.94735,512.70039 0 0 1 -2.38061,10.43826 500.0604,511.02885 0 0 0 2.38061,-10.43826 z m -2.38061,10.43826 a 501.94735,512.70039 0 0 1 -5.31069,20.69344 500.0604,511.02885 0 0 0 5.31069,-20.69344 z m -5.31069,20.69344 a 501.94735,512.70039 0 0 1 -2.99099,10.25515 500.0604,511.02885 0 0 0 2.99099,-10.25515 z m -2.99099,10.25515 a 501.94735,512.70039 0 0 1 -18.0686,50.17693 500.0604,511.02885 0 0 0 18.0686,-50.17693 z m -18.0686,50.17693 a 501.94735,512.70039 0 0 1 -4.21191,9.82788 500.0604,511.02885 0 0 0 4.21191,-9.82788 z m -4.21191,9.82788 a 501.94735,512.70039 0 0 1 -4.39507,9.70573 500.0604,511.02885 0 0 0 4.39507,-9.70573 z m -4.39507,9.70573 a 501.94735,512.70039 0 0 1 -4.63923,9.58368 500.0604,511.02885 0 0 0 4.63923,-9.58368 z m -4.63923,9.58368 a 501.94735,512.70039 0 0 1 -4.82237,9.52266 500.0604,511.02885 0 0 0 4.82237,-9.52266 z m -4.82237,9.52266 a 501.94735,512.70039 0 0 1 -5.00549,9.40053 500.0604,511.02885 0 0 0 5.00549,-9.40053 z m -5.00549,9.40053 a 501.94735,512.70039 0 0 1 -4.94444,8.85117 500.0604,511.02885 0 0 0 4.94444,-8.85117 z M 23.808599,645.47739 a 500.0604,511.02885 0 0 0 9.94994,28.81207 501.94735,512.70039 0 0 1 -9.94994,-28.81207 z m 9.94994,28.81207 a 500.0604,511.02885 0 0 0 3.90671,9.94992 501.94735,512.70039 0 0 1 -3.90671,-9.94992 z m 3.90671,9.94992 a 500.0604,511.02885 0 0 0 4.08985,9.82785 501.94735,512.70039 0 0 1 -4.08985,-9.82785 z m 4.08985,9.82785 a 500.0604,511.02885 0 0 0 4.27298,9.7668 501.94735,512.70039 0 0 1 -4.27298,-9.7668 z m 4.27298,9.7668 a 500.0604,511.02885 0 0 0 4.4561,9.64473 501.94735,512.70039 0 0 1 -4.4561,-9.64473 z m 4.4561,9.64473 a 500.0604,511.02885 0 0 0 9.58368,19.04527 501.94735,512.70039 0 0 1 -9.58368,-19.04527 z m 9.58368,19.04527 a 500.0604,511.02885 0 0 0 5.06653,9.40054 501.94735,512.70039 0 0 1 -5.06653,-9.40054 z m 5.06653,9.40054 a 500.0604,511.02885 0 0 0 5.24966,9.21742 501.94735,512.70039 0 0 1 -5.24966,-9.21742 z m 5.24966,9.21742 a 500.0604,511.02885 0 0 0 5.37175,9.03431 501.94735,512.70039 0 0 1 -5.37175,-9.03431 z m 860.638641,-2.3806 a 501.94735,512.70039 0 0 1 -5.00552,8.42386 500.0604,511.02885 0 0 0 5.00552,-8.42386 z m -11.72017,19.3505 a 501.94735,512.70039 0 0 1 -4.63924,7.14199 500.0604,511.02885 0 0 0 4.63924,-7.14199 z m -4.63924,7.14199 a 501.94735,512.70039 0 0 1 -5.55486,8.30174 500.0604,511.02885 0 0 0 5.55486,-8.30174 z" />
</svg>
