<?xml version="1.0" encoding="UTF-8" standalone="no"?>
<svg
   xmlns="http://www.w3.org/2000/svg"
   width="1000px"
   height="1000px"
   viewBox="0 0 1000 1000"
   version="1.1">
  <path
     style="fill:#ffffff"
     d="M 704.43164 301.00391 C 685.62569 301.33519 656.77328 311.36832 517.91797 369.12305 C 469.28559 389.35094 372.08828 431.21727 226.32812 494.72266 C 202.65896 504.1351 190.2596 513.34198 189.13086 522.3457 C 186.96379 539.63189 211.85152 545.01489 243.16406 555.19336 C 268.6932 563.49188 303.03415 573.20024 320.88672 573.58594 C 337.08071 573.9358 355.15469 567.25907 375.10938 553.55664 C 511.2976 461.62572 581.59803 415.15799 586.01172 414.15625 C 589.1255 413.44953 593.44166 412.56161 596.36523 415.16016 C 599.2888 417.75871 599.00109 422.67977 598.69141 424 C 596.21526 434.55612 468.28255 550.92122 460.91992 558.56836 C 432.78658 587.78885 400.78474 605.66799 450.15039 638.19922 C 492.86633 666.34839 517.72592 684.30552 561.73242 713.15234 C 589.85515 731.58713 611.90547 753.44927 640.94141 750.77734 C 654.30213 749.54786 668.10243 736.98469 675.11133 699.51562 C 691.67545 610.96503 724.23319 419.10284 731.75781 340.04102 C 732.41706 333.11418 731.58788 324.24894 730.92188 320.35742 C 730.25588 316.4659 728.86499 310.92091 723.80664 306.81641 C 717.81603 301.95544 708.56783 300.93101 704.43164 301.00391 z "/>
</svg>
